<?xml version="1.0" standalone="no"?>
<!DOCTYPE svg PUBLIC "-//W3C//DTD SVG 20010904//EN"
 "http://www.w3.org/TR/2001/REC-SVG-20010904/DTD/svg10.dtd">
<svg version="1.0" xmlns="http://www.w3.org/2000/svg"
 width="500.000000pt" height="500.000000pt" viewBox="0 0 500.000000 500.000000"
 preserveAspectRatio="xMidYMid meet">
<metadata>
Created by potrace 1.11, written by Peter Selinger 2001-2013
</metadata>
<g transform="translate(0.000000,500.000000) scale(0.100000,-0.100000)"
fill="#000000" stroke="none">
<path d="M560 4010 l0 -339 141 -3 140 -3 65 -150 c36 -82 74 -170 86 -195 11
-25 45 -101 75 -170 30 -69 63 -143 73 -165 10 -22 102 -229 205 -460 103
-231 197 -442 210 -470 12 -27 77 -174 145 -325 67 -151 133 -300 147 -330 14
-30 89 -199 168 -375 78 -176 148 -332 155 -348 l13 -27 317 0 317 0 28 62
c15 35 39 88 52 118 124 275 340 759 650 1455 135 303 253 568 263 590 73 163
332 746 347 783 4 9 42 12 144 12 l139 0 0 340 0 340 -740 0 -740 0 0 -340 0
-340 140 0 c77 0 140 -2 140 -4 0 -6 -32 -79 -75 -171 -20 -44 -54 -118 -75
-165 -21 -47 -58 -129 -84 -183 -25 -55 -46 -100 -46 -102 0 -1 -20 -45 -43
-96 -59 -126 -85 -183 -117 -254 -15 -33 -42 -91 -60 -130 -18 -38 -63 -135
-100 -215 -106 -230 -135 -289 -141 -290 -3 0 -19 30 -36 68 -17 37 -101 220
-188 407 -86 187 -179 390 -207 450 -28 61 -68 147 -89 193 -21 45 -39 84 -39
86 0 2 -20 46 -44 98 -92 198 -136 296 -136 304 0 2 63 4 140 4 l140 0 0 340
0 340 -740 0 -740 0 0 -340z"/>
</g>
</svg>
