<?xml version="1.0" encoding="utf-8"?>
<!-- Generator: Adobe Illustrator 26.1.0, SVG Export Plug-In . SVG Version: 6.00 Build 0)  -->
<svg version="1.1" id="Layer_1" xmlns="http://www.w3.org/2000/svg" xmlns:xlink="http://www.w3.org/1999/xlink" x="0px" y="0px"
	 viewBox="0 0 657.5 644.8" style="enable-background:new 0 0 657.5 644.8;" xml:space="preserve">
<g transform="translate(-1.116645,646.000000) scale(0.100000,-0.100000)">
	<path d="M430,6454c0-3,48-59,108-123c73-81,166-166,294-270c326-263,183-29,1403-2306l1053-1967l25,44c45,77,1983,3701,2027,3788
		c67,135,189,266,410,445c127,103,219,187,295,270l110,120l-653,3c-358,1-944,1-1302,0l-650-3l320-244l320-244v-43
		c0-24-10-72-23-106c-22-60-866-1598-877-1598c-3,0-199,353-437,783c-422,765-463,848-463,930c0,33,9,41,313,272
		c171,131,316,242,321,247c6,4-576,8-1292,8S430,6457,430,6454z M2450,6256c0-2-51-42-113-89c-110-84-114-89-125-138
		c-7-28-12-77-12-109c0-122,28-181,440-925c214-385,447-796,518-913l130-213l19,28c91,130,250,405,607,1051c441,798,466,851,466,974
		c0,31-5,79-12,107c-11,49-15,54-126,139l-115,87l392,3c215,1,566,1,780,0l389-3l-130-105c-170-136-309-295-378-431
		c-27-53-368-692-758-1420s-800-1505-912-1726c-111-222-206-403-209-403c-4,0-47,82-96,181c-50,100-95,187-101,193
		c-5,6-389,720-853,1586s-860,1605-880,1642c-54,99-201,261-345,378c-69,56-126,104-126,106s349,4,775,4S2450,6258,2450,6256z"/>
	<path d="M1020,2251c-12-47-26-90-30-94c-4-5-20,9-36,30c-15,21-31,42-34,46c-4,4-32-3-63-17l-57-25l-30,44c-17,24-35,47-40,50
		s-32-6-59-20c-28-14-54-25-59-25s-23,20-41,45l-32,44l-44-21l-43-21l-86,23c-48,13-88,21-90,19s-54-193-116-424
		c-61-231-120-450-130-488l-19-67l46-13c37-9,54-22,81-59l35-47l48,25c27,13,50,24,52,24s21-25,41-55c40-60,38-60,125-15
		c22,11,42,20,44,20s21-25,41-55c31-48,39-54,56-45c60,32,66,31,99-15l32-44l-16-60c-8-32-15-65-15-73c0-10,34-23,105-41
		c57-15,111-30,118-33c10-3,21,24,43,104l29,109l537-106c295-58,539-108,541-111c3-3-362-140-812-305C792,391,365,234,292,207
		l-133-50l-25-48l-24-49l47-23l48-24l1542,304l1543,304l1547-305L6385,12l48,20c26,11,47,24,47,29s-10,28-22,53l-21,44l-946,347
		c-520,191-949,350-953,354c-6,6,994,207,1061,214c23,2,26-4,50-95c15-53,29-100,33-103c7-7,206,41,228,55c10,6,9,22-5,73
		c-19,71-21,63,33,145c7,10,18,9,53-6l45-20l35,54c19,30,38,54,42,54s35-14,69-31c33-17,64-27,67-22s20,31,36,56c17,26,35,47,40,47
		c6-1,30-11,55-24l45-24l31,46c25,38,40,50,81,62l49,15l-130,485c-71,267-131,487-132,489c-2,2-42-6-89-18l-85-21l-40,20
		c-50,26-52,25-73-7c-41-67-39-66-98-38c-30,14-58,25-64,25c-5,0-23-20-40-45c-16-24-37-44-45-44s-35,10-60,23l-45,24l-33-49
		c-18-27-36-49-40-49s-18,43-32,95c-19,76-27,94-39,90c-9-2-61-16-116-31c-55-14-103-28-107-30c-3-2,5-45,18-95c14-50,24-95,22-101
		s-466-181-1032-389l-1028-377l-1021,375c-562,206-1026,379-1031,384c-6,5,0,46,14,103c13,52,22,97,20,99c-3,2-57,18-121,34l-117,31
		L1020,2251z M5504,2238c57-199,147-552,143-562c-5-12-114-42-122-34c-6,6-167,610-163,612c3,3,109,34,120,35
		C5486,2290,5495,2266,5504,2238z M1185,2266c28-7,50-17,49-22c0-5-36-143-80-306c-60-226-82-298-94-298c-30,1-115,27-114,36
		c1,5,37,143,80,306c59,224,83,298,94,298C1128,2280,1158,2274,1185,2266z M538,2238c-3-7-33-93-68-190l-63-178l-50-15
		c-61-18-67-18-67-4c0,7,28,90,62,185l63,174l55,19C537,2253,543,2253,538,2238z M6129,2229c23-7,45-17,50-23c12-15,135-356,130-361
		c-3-2-30,3-61,12l-57,16l-59,166c-79,222-77,215-59,208C6081,2244,6106,2236,6129,2229z M740,2203c0-13-123-357-131-368
		c-9-13-108-40-115-32c-3,3,23,85,58,184l64,178l55,22C730,2212,740,2214,740,2203z M5924,2190c30-12,57-28,61-38
		c27-68,124-346,122-348c-5-5-109,24-117,33s-130,350-130,364C5860,2213,5862,2213,5924,2190z M5811,2096c37-82,124-341,115-343
		c-6-2-33,3-61,10l-49,13l-63,175c-34,95-65,182-68,191c-6,15,0,15,55-4C5780,2125,5805,2110,5811,2096z M850,1963l-67-188l-58-17
		c-32-10-60-17-62-15s26,87,63,189l66,185l46,16C924,2161,924,2168,850,1963z M2380,1603c459-168,839-308,844-310
		c7-5-366-148-454-174c-30-9-62-3-237,45l-202,54l-405,341c-223,188-408,346-412,353c-5,8-2,9,12,4C1536,1912,1921,1771,2380,1603z
		 M5070,1896c-14-13-199-170-412-349c-271-228-399-329-425-337C4027,1150,198,125,196,129c-4,7,4860,1789,4884,1790
		C5090,1920,5086,1912,5070,1896z M5391,501c878-321,1059-389,1004-376c-62,14-2333,627-2350,634c-14,5,39,19,185,48
		c113,23,206,41,206,42C4437,849,4867,693,5391,501z"/>
</g>
</svg>
