<?xml version="1.0" encoding="UTF-8" standalone="no"?>
<!DOCTYPE svg PUBLIC "-//W3C//DTD SVG 1.1//EN" "http://www.w3.org/Graphics/SVG/1.1/DTD/svg11.dtd">
<svg width="100%" height="100%" viewBox="0 0 2841 2936" version="1.1" xmlns="http://www.w3.org/2000/svg" xmlns:xlink="http://www.w3.org/1999/xlink" xml:space="preserve" xmlns:serif="http://www.serif.com/" style="fill-rule:evenodd;clip-rule:evenodd;stroke-linejoin:round;stroke-miterlimit:1.41421;">
    <g transform="matrix(0.095238,-1.4585e-16,-1.4585e-16,-0.095238,-27,2969)">
        <path d="M284,28329L284,25484L1334,25481L2385,25478L3161,23557C3621,22420 5729,17289 8324,10994L12711,352L17685,352L20545,7292C22119,11110 24442,16763 25709,19856L28011,25478L29062,25481L30114,25484L30114,31175L24423,31175L18732,31175L18732,28329L18732,25484L19798,25484C20584,25484 20864,25480 20864,25472C20864,25465 19807,22950 18515,19883C15994,13894 15212,12071 15187,12119C15180,12132 14246,14321 13111,16984C11379,21047 9556,25370 9537,25460L9532,25484L11666,25484L11666,31175L5975,31175L284,31175L284,28329Z" style="fill:rgb(248,240,231);fill-rule:nonzero;"/>
    </g>
</svg>
